<svg xmlns="http://www.w3.org/2000/svg" xmlns:xlink="http://www.w3.org/1999/xlink" width="225" zoomAndPan="magnify" viewBox="0 0 168.75 37.5" height="50" preserveAspectRatio="xMidYMid meet" version="1.0"><defs><g/><clipPath id="359d1cbf23"><path d="M 0.988281 0 L 35.421875 0 L 35.421875 34.433594 L 0.988281 34.433594 Z M 0.988281 0 " clip-rule="nonzero"/></clipPath><clipPath id="86915122a5"><path d="M 18.203125 0 C 8.695312 0 0.988281 7.707031 0.988281 17.21875 C 0.988281 26.726562 8.695312 34.433594 18.203125 34.433594 C 27.714844 34.433594 35.421875 26.726562 35.421875 17.21875 C 35.421875 7.707031 27.714844 0 18.203125 0 Z M 18.203125 0 " clip-rule="nonzero"/></clipPath><clipPath id="84a9e0e256"><path d="M 8.054688 1.480469 L 30.996094 1.480469 L 30.996094 37.007812 L 8.054688 37.007812 Z M 8.054688 1.480469 " clip-rule="nonzero"/></clipPath></defs><g clip-path="url(#359d1cbf23)"><g clip-path="url(#86915122a5)"><path fill="#ffde59" d="M 0.988281 0 L 35.421875 0 L 35.421875 34.433594 L 0.988281 34.433594 Z M 0.988281 0 " fill-opacity="1" fill-rule="nonzero"/></g></g><g clip-path="url(#84a9e0e256)"><path fill="#b206ff" d="M 29.953125 1.480469 L 17.257812 1.480469 C 17.105469 1.480469 16.96875 1.566406 16.898438 1.699219 L 8.765625 17.578125 C 8.703125 17.703125 8.707031 17.851562 8.78125 17.972656 C 8.855469 18.089844 8.984375 18.164062 9.128906 18.164062 L 17.589844 18.164062 L 8.308594 36.417969 C 8.21875 36.597656 8.273438 36.820312 8.441406 36.933594 C 8.511719 36.984375 8.589844 37.007812 8.671875 37.007812 C 8.78125 37.007812 8.890625 36.960938 8.96875 36.871094 L 29.796875 13.703125 C 29.90625 13.582031 29.929688 13.414062 29.867188 13.269531 C 29.800781 13.121094 29.65625 13.027344 29.496094 13.027344 L 21.019531 13.027344 L 30.261719 2.144531 C 30.363281 2.027344 30.386719 1.855469 30.320312 1.714844 C 30.253906 1.570312 30.109375 1.480469 29.953125 1.480469 Z M 29.953125 1.480469 " fill-opacity="1" fill-rule="nonzero"/></g><g fill="#b206ff" fill-opacity="1"><g transform="translate(39.198312, 16.710303)"><g><path d="M 11.890625 0 L 1 0 L 1 -9.03125 L 11.390625 -9.03125 L 11.390625 -6.796875 L 4.796875 -6.796875 L 4.796875 -5.375 L 10.359375 -5.375 L 10.359375 -3.640625 L 4.796875 -3.640625 L 4.796875 -2.234375 L 11.890625 -2.234375 Z M 11.890625 0 "/></g></g></g><g fill="#b206ff" fill-opacity="1"><g transform="translate(52.248135, 16.710303)"><g><path d="M 15.171875 0 L 11.328125 0 L 10.484375 -1.484375 L 4.78125 -1.484375 L 3.9375 0 L 0.09375 0 L 5.875 -9.03125 L 9.390625 -9.03125 Z M 9.203125 -3.71875 L 7.640625 -6.453125 L 6.0625 -3.71875 Z M 9.203125 -3.71875 "/></g></g></g><g fill="#b206ff" fill-opacity="1"><g transform="translate(68.172669, 16.710303)"><g><path d="M 5.96875 0.1875 C 4.75 0.1875 3.765625 0.0546875 3.015625 -0.203125 C 2.265625 -0.460938 1.691406 -0.820312 1.296875 -1.28125 C 0.910156 -1.738281 0.648438 -2.269531 0.515625 -2.875 L 4.546875 -2.875 C 4.835938 -2.445312 5.3125 -2.234375 5.96875 -2.234375 C 6.613281 -2.234375 7.085938 -2.445312 7.390625 -2.875 C 7.410156 -2.914062 7.421875 -2.953125 7.421875 -2.984375 C 7.421875 -3.097656 7.269531 -3.179688 6.96875 -3.234375 C 6.675781 -3.296875 6.234375 -3.34375 5.640625 -3.375 C 4.878906 -3.40625 4.085938 -3.484375 3.265625 -3.609375 C 1.421875 -3.890625 0.5 -4.628906 0.5 -5.828125 C 0.5 -5.929688 0.503906 -6.039062 0.515625 -6.15625 C 0.648438 -6.75 0.910156 -7.273438 1.296875 -7.734375 C 1.691406 -8.191406 2.265625 -8.550781 3.015625 -8.8125 C 3.765625 -9.082031 4.75 -9.21875 5.96875 -9.21875 C 7.1875 -9.21875 8.171875 -9.082031 8.921875 -8.8125 C 9.671875 -8.550781 10.238281 -8.191406 10.625 -7.734375 C 11.007812 -7.273438 11.269531 -6.75 11.40625 -6.15625 L 7.390625 -6.15625 C 7.085938 -6.582031 6.613281 -6.796875 5.96875 -6.796875 C 5.3125 -6.796875 4.835938 -6.582031 4.546875 -6.15625 C 4.523438 -6.113281 4.515625 -6.082031 4.515625 -6.0625 C 4.515625 -5.957031 4.65625 -5.878906 4.9375 -5.828125 C 5.226562 -5.785156 5.65625 -5.742188 6.21875 -5.703125 C 6.78125 -5.671875 7.375 -5.617188 8 -5.546875 C 8.632812 -5.472656 9.226562 -5.34375 9.78125 -5.15625 C 10.332031 -4.96875 10.765625 -4.691406 11.078125 -4.328125 C 11.316406 -4.046875 11.4375 -3.6875 11.4375 -3.25 C 11.4375 -3.132812 11.425781 -3.007812 11.40625 -2.875 C 11.269531 -2.269531 11.007812 -1.738281 10.625 -1.28125 C 10.238281 -0.820312 9.671875 -0.460938 8.921875 -0.203125 C 8.171875 0.0546875 7.1875 0.1875 5.96875 0.1875 Z M 5.96875 0.1875 "/></g></g></g><g fill="#b206ff" fill-opacity="1"><g transform="translate(80.782164, 16.710303)"><g><path d="M 11.890625 0 L 1 0 L 1 -9.03125 L 11.390625 -9.03125 L 11.390625 -6.796875 L 4.796875 -6.796875 L 4.796875 -5.375 L 10.359375 -5.375 L 10.359375 -3.640625 L 4.796875 -3.640625 L 4.796875 -2.234375 L 11.890625 -2.234375 Z M 11.890625 0 "/></g></g></g><g fill="#b206ff" fill-opacity="1"><g transform="translate(93.831987, 16.710303)"><g><path d="M 6.828125 0.1875 C 4.597656 0.1875 2.957031 -0.269531 1.90625 -1.1875 C 0.96875 -2 0.5 -3.109375 0.5 -4.515625 C 0.5 -5.910156 0.96875 -7.019531 1.90625 -7.84375 C 2.957031 -8.757812 4.597656 -9.21875 6.828125 -9.21875 C 9.054688 -9.21875 10.695312 -8.757812 11.75 -7.84375 C 12.6875 -7.019531 13.15625 -5.910156 13.15625 -4.515625 C 13.15625 -3.109375 12.6875 -2 11.75 -1.1875 C 10.695312 -0.269531 9.054688 0.1875 6.828125 0.1875 Z M 6.828125 -2.234375 C 7.742188 -2.234375 8.414062 -2.492188 8.84375 -3.015625 C 9.1875 -3.441406 9.359375 -3.941406 9.359375 -4.515625 C 9.359375 -5.085938 9.1875 -5.582031 8.84375 -6 C 8.414062 -6.53125 7.742188 -6.796875 6.828125 -6.796875 C 5.910156 -6.796875 5.238281 -6.53125 4.8125 -6 C 4.46875 -5.582031 4.296875 -5.085938 4.296875 -4.515625 C 4.296875 -3.941406 4.46875 -3.441406 4.8125 -3.015625 C 5.238281 -2.492188 5.910156 -2.234375 6.828125 -2.234375 Z M 6.828125 -2.234375 "/></g></g></g><g fill="#b206ff" fill-opacity="1"><g transform="translate(108.152467, 16.710303)"><g><path d="M 6.34375 0.1875 C 4.144531 0.1875 2.597656 -0.265625 1.703125 -1.171875 C 0.941406 -1.941406 0.5625 -3.050781 0.5625 -4.5 L 0.5625 -9.03125 L 4.359375 -9.03125 L 4.359375 -4.5 C 4.359375 -3.875 4.460938 -3.378906 4.671875 -3.015625 C 4.984375 -2.492188 5.539062 -2.234375 6.34375 -2.234375 C 7.164062 -2.234375 7.726562 -2.492188 8.03125 -3.015625 C 8.25 -3.390625 8.359375 -3.882812 8.359375 -4.5 L 8.359375 -9.03125 L 12.140625 -9.03125 L 12.140625 -4.453125 C 12.140625 -3.035156 11.765625 -1.941406 11.015625 -1.171875 C 10.109375 -0.265625 8.550781 0.1875 6.34375 0.1875 Z M 6.34375 0.1875 "/></g></g></g><g fill="#b206ff" fill-opacity="1"><g transform="translate(121.523097, 16.710303)"><g><path d="M 7.703125 0 L 3.921875 0 L 3.921875 -6.796875 L 0.375 -6.796875 L 0.375 -9.03125 L 11.234375 -9.03125 L 11.234375 -6.796875 L 7.703125 -6.796875 Z M 7.703125 0 "/></g></g></g><g fill="#b206ff" fill-opacity="1"><g transform="translate(133.805488, 16.710303)"><g><path d="M 1.921875 0 L 0.1875 0 L 0.1875 -1.734375 L 1.921875 -1.734375 Z M 1.921875 0 "/></g></g></g><g fill="#b206ff" fill-opacity="1"><g transform="translate(136.589377, 16.710303)"><g><path d="M 6.828125 0.1875 C 4.597656 0.1875 2.957031 -0.269531 1.90625 -1.1875 C 0.96875 -1.988281 0.5 -3.09375 0.5 -4.5 C 0.5 -5.90625 0.96875 -7.019531 1.90625 -7.84375 C 2.957031 -8.75 4.597656 -9.203125 6.828125 -9.203125 C 8.140625 -9.203125 9.222656 -9.050781 10.078125 -8.75 C 10.929688 -8.457031 11.59375 -8.050781 12.0625 -7.53125 C 12.539062 -7.007812 12.859375 -6.410156 13.015625 -5.734375 L 9.03125 -5.734375 C 8.632812 -6.441406 7.898438 -6.796875 6.828125 -6.796875 C 5.910156 -6.796875 5.238281 -6.53125 4.8125 -6 C 4.46875 -5.582031 4.296875 -5.082031 4.296875 -4.5 C 4.296875 -3.925781 4.46875 -3.429688 4.8125 -3.015625 C 5.238281 -2.484375 5.910156 -2.21875 6.828125 -2.21875 C 7.898438 -2.21875 8.632812 -2.570312 9.03125 -3.28125 L 13.015625 -3.28125 C 12.859375 -2.601562 12.539062 -2.003906 12.0625 -1.484375 C 11.59375 -0.960938 10.929688 -0.550781 10.078125 -0.25 C 9.222656 0.0390625 8.140625 0.1875 6.828125 0.1875 Z M 6.828125 0.1875 "/></g></g></g><g fill="#b206ff" fill-opacity="1"><g transform="translate(150.771468, 16.710303)"><g><path d="M 6.828125 0.1875 C 4.597656 0.1875 2.957031 -0.269531 1.90625 -1.1875 C 0.96875 -2 0.5 -3.109375 0.5 -4.515625 C 0.5 -5.910156 0.96875 -7.019531 1.90625 -7.84375 C 2.957031 -8.757812 4.597656 -9.21875 6.828125 -9.21875 C 9.054688 -9.21875 10.695312 -8.757812 11.75 -7.84375 C 12.6875 -7.019531 13.15625 -5.910156 13.15625 -4.515625 C 13.15625 -3.109375 12.6875 -2 11.75 -1.1875 C 10.695312 -0.269531 9.054688 0.1875 6.828125 0.1875 Z M 6.828125 -2.234375 C 7.742188 -2.234375 8.414062 -2.492188 8.84375 -3.015625 C 9.1875 -3.441406 9.359375 -3.941406 9.359375 -4.515625 C 9.359375 -5.085938 9.1875 -5.582031 8.84375 -6 C 8.414062 -6.53125 7.742188 -6.796875 6.828125 -6.796875 C 5.910156 -6.796875 5.238281 -6.53125 4.8125 -6 C 4.46875 -5.582031 4.296875 -5.085938 4.296875 -4.515625 C 4.296875 -3.941406 4.46875 -3.441406 4.8125 -3.015625 C 5.238281 -2.492188 5.910156 -2.234375 6.828125 -2.234375 Z M 6.828125 -2.234375 "/></g></g></g><g fill="#000000" fill-opacity="1"><g transform="translate(39.936876, 28.231142)"><g><path d="M 2.9375 -6.1875 C 3.5625 -6.1875 4.097656 -6.070312 4.546875 -5.84375 C 5.003906 -5.625 5.351562 -5.285156 5.59375 -4.828125 C 5.84375 -4.367188 5.96875 -3.789062 5.96875 -3.09375 C 5.96875 -2.394531 5.84375 -1.816406 5.59375 -1.359375 C 5.351562 -0.898438 5.003906 -0.554688 4.546875 -0.328125 C 4.097656 -0.109375 3.5625 0 2.9375 0 L 0.9375 0 L 0.9375 -6.1875 Z M 2.859375 -0.625 C 3.378906 -0.625 3.804688 -0.703125 4.140625 -0.859375 C 4.484375 -1.015625 4.742188 -1.273438 4.921875 -1.640625 C 5.097656 -2.003906 5.1875 -2.488281 5.1875 -3.09375 C 5.1875 -3.695312 5.097656 -4.179688 4.921875 -4.546875 C 4.742188 -4.910156 4.484375 -5.171875 4.140625 -5.328125 C 3.804688 -5.492188 3.378906 -5.578125 2.859375 -5.578125 L 1.671875 -5.578125 L 1.671875 -0.625 Z M 2.859375 -0.625 "/></g></g><g transform="translate(46.520331, 28.231142)"><g><path d="M 1.671875 -2.921875 L 1.671875 -0.59375 L 4.8125 -0.59375 L 4.8125 0 L 0.9375 0 L 0.9375 -6.1875 L 4.75 -6.1875 L 4.75 -5.59375 L 1.671875 -5.59375 L 1.671875 -3.515625 L 4.390625 -3.515625 L 4.390625 -2.921875 Z M 1.671875 -2.921875 "/></g></g><g transform="translate(51.752357, 28.231142)"><g><path d="M 3.375 0 L 2.40625 0 L 0.265625 -6.1875 L 1.046875 -6.1875 L 2.859375 -0.90625 L 2.96875 -0.90625 L 4.765625 -6.1875 L 5.515625 -6.1875 Z M 3.375 0 "/></g></g><g transform="translate(57.539359, 28.231142)"><g/></g><g transform="translate(59.666061, 28.231142)"><g><path d="M 2.84375 -2.703125 L 0.4375 -2.703125 L 0.4375 -3.3125 L 2.84375 -3.3125 Z M 2.84375 -2.703125 "/></g></g><g transform="translate(62.953552, 28.231142)"><g/></g><g transform="translate(65.080254, 28.231142)"><g><path d="M 2.9375 -6.1875 C 3.5625 -6.1875 4.097656 -6.070312 4.546875 -5.84375 C 5.003906 -5.625 5.351562 -5.285156 5.59375 -4.828125 C 5.84375 -4.367188 5.96875 -3.789062 5.96875 -3.09375 C 5.96875 -2.394531 5.84375 -1.816406 5.59375 -1.359375 C 5.351562 -0.898438 5.003906 -0.554688 4.546875 -0.328125 C 4.097656 -0.109375 3.5625 0 2.9375 0 L 0.9375 0 L 0.9375 -6.1875 Z M 2.859375 -0.625 C 3.378906 -0.625 3.804688 -0.703125 4.140625 -0.859375 C 4.484375 -1.015625 4.742188 -1.273438 4.921875 -1.640625 C 5.097656 -2.003906 5.1875 -2.488281 5.1875 -3.09375 C 5.1875 -3.695312 5.097656 -4.179688 4.921875 -4.546875 C 4.742188 -4.910156 4.484375 -5.171875 4.140625 -5.328125 C 3.804688 -5.492188 3.378906 -5.578125 2.859375 -5.578125 L 1.671875 -5.578125 L 1.671875 -0.625 Z M 2.859375 -0.625 "/></g></g><g transform="translate(71.66371, 28.231142)"><g><path d="M 1.671875 -2.921875 L 1.671875 -0.59375 L 4.8125 -0.59375 L 4.8125 0 L 0.9375 0 L 0.9375 -6.1875 L 4.75 -6.1875 L 4.75 -5.59375 L 1.671875 -5.59375 L 1.671875 -3.515625 L 4.390625 -3.515625 L 4.390625 -2.921875 Z M 1.671875 -2.921875 "/></g></g><g transform="translate(76.895735, 28.231142)"><g><path d="M 2.703125 0.09375 C 2.316406 0.09375 1.96875 0.0390625 1.65625 -0.0625 C 1.34375 -0.175781 1.082031 -0.316406 0.875 -0.484375 C 0.675781 -0.660156 0.523438 -0.847656 0.421875 -1.046875 L 0.828125 -1.53125 L 0.921875 -1.53125 C 1.304688 -0.882812 1.898438 -0.5625 2.703125 -0.5625 C 3.171875 -0.5625 3.519531 -0.660156 3.75 -0.859375 C 3.976562 -1.054688 4.09375 -1.328125 4.09375 -1.671875 C 4.09375 -1.878906 4.050781 -2.050781 3.96875 -2.1875 C 3.894531 -2.332031 3.769531 -2.453125 3.59375 -2.546875 C 3.425781 -2.648438 3.195312 -2.738281 2.90625 -2.8125 L 2.171875 -2.984375 C 1.640625 -3.117188 1.242188 -3.328125 0.984375 -3.609375 C 0.722656 -3.890625 0.59375 -4.25 0.59375 -4.6875 C 0.59375 -5 0.671875 -5.273438 0.828125 -5.515625 C 0.992188 -5.753906 1.226562 -5.941406 1.53125 -6.078125 C 1.832031 -6.210938 2.195312 -6.28125 2.625 -6.28125 C 3.09375 -6.28125 3.484375 -6.210938 3.796875 -6.078125 C 4.117188 -5.953125 4.378906 -5.753906 4.578125 -5.484375 L 4.21875 -5.015625 L 4.109375 -5.015625 C 3.929688 -5.234375 3.71875 -5.390625 3.46875 -5.484375 C 3.226562 -5.585938 2.945312 -5.640625 2.625 -5.640625 C 2.195312 -5.640625 1.875 -5.554688 1.65625 -5.390625 C 1.4375 -5.222656 1.328125 -4.992188 1.328125 -4.703125 C 1.328125 -4.421875 1.40625 -4.195312 1.5625 -4.03125 C 1.726562 -3.875 2 -3.75 2.375 -3.65625 L 3.125 -3.46875 C 3.71875 -3.332031 4.148438 -3.117188 4.421875 -2.828125 C 4.691406 -2.535156 4.828125 -2.160156 4.828125 -1.703125 C 4.828125 -1.359375 4.75 -1.050781 4.59375 -0.78125 C 4.4375 -0.507812 4.195312 -0.296875 3.875 -0.140625 C 3.5625 0.015625 3.171875 0.09375 2.703125 0.09375 Z M 2.703125 0.09375 "/></g></g><g transform="translate(82.204017, 28.231142)"><g><path d="M 1.671875 0 L 0.9375 0 L 0.9375 -6.1875 L 1.671875 -6.1875 Z M 1.671875 0 "/></g></g><g transform="translate(84.809439, 28.231142)"><g><path d="M 3.25 0.09375 C 2.738281 0.09375 2.28125 -0.0234375 1.875 -0.265625 C 1.476562 -0.503906 1.171875 -0.859375 0.953125 -1.328125 C 0.734375 -1.804688 0.625 -2.394531 0.625 -3.09375 C 0.625 -3.789062 0.738281 -4.375 0.96875 -4.84375 C 1.207031 -5.320312 1.539062 -5.679688 1.96875 -5.921875 C 2.394531 -6.160156 2.882812 -6.28125 3.4375 -6.28125 C 4.03125 -6.28125 4.515625 -6.171875 4.890625 -5.953125 C 5.273438 -5.742188 5.546875 -5.425781 5.703125 -5 L 5.234375 -4.71875 L 5.125 -4.71875 C 4.957031 -5.039062 4.738281 -5.269531 4.46875 -5.40625 C 4.195312 -5.550781 3.851562 -5.625 3.4375 -5.625 C 2.070312 -5.625 1.390625 -4.78125 1.390625 -3.09375 C 1.390625 -2.21875 1.5625 -1.578125 1.90625 -1.171875 C 2.25 -0.765625 2.726562 -0.5625 3.34375 -0.5625 C 3.90625 -0.5625 4.328125 -0.691406 4.609375 -0.953125 C 4.890625 -1.210938 5.03125 -1.617188 5.03125 -2.171875 L 5.03125 -2.71875 L 3.265625 -2.71875 L 3.265625 -3.296875 L 5.734375 -3.296875 L 5.734375 0 L 5.0625 0 L 5.0625 -0.828125 L 4.984375 -0.84375 C 4.816406 -0.53125 4.585938 -0.296875 4.296875 -0.140625 C 4.003906 0.015625 3.65625 0.09375 3.25 0.09375 Z M 3.25 0.09375 "/></g></g><g transform="translate(91.248855, 28.231142)"><g><path d="M 1.640625 0 L 0.9375 0 L 0.9375 -6.1875 L 1.828125 -6.1875 L 4.84375 -1.453125 L 4.953125 -1.484375 L 4.953125 -6.1875 L 5.65625 -6.1875 L 5.65625 0 L 4.90625 0 L 1.75 -5.0625 L 1.640625 -5.046875 Z M 1.640625 0 "/></g></g><g transform="translate(97.853493, 28.231142)"><g/></g><g transform="translate(99.980195, 28.231142)"><g><path d="M 2.84375 -2.703125 L 0.4375 -2.703125 L 0.4375 -3.3125 L 2.84375 -3.3125 Z M 2.84375 -2.703125 "/></g></g><g transform="translate(103.267687, 28.231142)"><g/></g><g transform="translate(105.394389, 28.231142)"><g><path d="M 4.578125 -6.1875 L 4.578125 -5.59375 L 1.671875 -5.59375 L 1.671875 -3.34375 L 4.28125 -3.34375 L 4.28125 -2.734375 L 1.671875 -2.734375 L 1.671875 0 L 0.9375 0 L 0.9375 -6.1875 Z M 4.578125 -6.1875 "/></g></g><g transform="translate(110.304444, 28.231142)"><g><path d="M 0.9375 0 L 0.9375 -6.1875 L 3.1875 -6.1875 C 3.601562 -6.1875 3.953125 -6.117188 4.234375 -5.984375 C 4.515625 -5.847656 4.722656 -5.65625 4.859375 -5.40625 C 5.003906 -5.15625 5.078125 -4.859375 5.078125 -4.515625 C 5.078125 -4.128906 4.976562 -3.8125 4.78125 -3.5625 C 4.59375 -3.3125 4.296875 -3.125 3.890625 -3 L 3.890625 -2.921875 C 4.085938 -2.835938 4.25 -2.710938 4.375 -2.546875 C 4.507812 -2.378906 4.628906 -2.125 4.734375 -1.78125 L 5.3125 0 L 4.5625 0 L 3.9375 -1.890625 C 3.863281 -2.117188 3.78125 -2.296875 3.6875 -2.421875 C 3.59375 -2.546875 3.46875 -2.632812 3.3125 -2.6875 C 3.164062 -2.75 2.984375 -2.78125 2.765625 -2.78125 L 1.671875 -2.78125 L 1.671875 0 Z M 3.171875 -3.390625 C 3.554688 -3.390625 3.84375 -3.476562 4.03125 -3.65625 C 4.21875 -3.84375 4.3125 -4.117188 4.3125 -4.484375 C 4.3125 -4.847656 4.21875 -5.117188 4.03125 -5.296875 C 3.84375 -5.484375 3.554688 -5.578125 3.171875 -5.578125 L 1.671875 -5.578125 L 1.671875 -3.390625 Z M 3.171875 -3.390625 "/></g></g><g transform="translate(116.040608, 28.231142)"><g><path d="M 1.671875 -2.921875 L 1.671875 -0.59375 L 4.8125 -0.59375 L 4.8125 0 L 0.9375 0 L 0.9375 -6.1875 L 4.75 -6.1875 L 4.75 -5.59375 L 1.671875 -5.59375 L 1.671875 -3.515625 L 4.390625 -3.515625 L 4.390625 -2.921875 Z M 1.671875 -2.921875 "/></g></g><g transform="translate(121.272633, 28.231142)"><g><path d="M 1.671875 -2.921875 L 1.671875 -0.59375 L 4.8125 -0.59375 L 4.8125 0 L 0.9375 0 L 0.9375 -6.1875 L 4.75 -6.1875 L 4.75 -5.59375 L 1.671875 -5.59375 L 1.671875 -3.515625 L 4.390625 -3.515625 L 4.390625 -2.921875 Z M 1.671875 -2.921875 "/></g></g><g transform="translate(126.504659, 28.231142)"><g><path d="M 1.671875 -6.1875 L 1.671875 -0.59375 L 4.640625 -0.59375 L 4.640625 0 L 0.9375 0 L 0.9375 -6.1875 Z M 1.671875 -6.1875 "/></g></g><g transform="translate(131.414714, 28.231142)"><g><path d="M 5.578125 0 L 4.796875 0 L 4.21875 -1.703125 L 1.578125 -1.703125 L 1 0 L 0.25 0 L 2.40625 -6.1875 L 3.40625 -6.1875 Z M 2.84375 -5.4375 L 1.78125 -2.3125 L 4.015625 -2.3125 L 2.953125 -5.4375 Z M 2.84375 -5.4375 "/></g></g><g transform="translate(137.235607, 28.231142)"><g><path d="M 1.640625 0 L 0.9375 0 L 0.9375 -6.1875 L 1.828125 -6.1875 L 4.84375 -1.453125 L 4.953125 -1.484375 L 4.953125 -6.1875 L 5.65625 -6.1875 L 5.65625 0 L 4.90625 0 L 1.75 -5.0625 L 1.640625 -5.046875 Z M 1.640625 0 "/></g></g><g transform="translate(143.840245, 28.231142)"><g><path d="M 3.421875 0.09375 C 2.878906 0.09375 2.394531 -0.03125 1.96875 -0.28125 C 1.550781 -0.53125 1.222656 -0.894531 0.984375 -1.375 C 0.742188 -1.851562 0.625 -2.425781 0.625 -3.09375 C 0.625 -3.757812 0.742188 -4.332031 0.984375 -4.8125 C 1.222656 -5.289062 1.550781 -5.65625 1.96875 -5.90625 C 2.394531 -6.15625 2.878906 -6.28125 3.421875 -6.28125 C 4.003906 -6.28125 4.484375 -6.171875 4.859375 -5.953125 C 5.242188 -5.734375 5.519531 -5.40625 5.6875 -4.96875 L 5.234375 -4.65625 L 5.125 -4.65625 C 4.957031 -5.007812 4.738281 -5.257812 4.46875 -5.40625 C 4.195312 -5.550781 3.847656 -5.625 3.421875 -5.625 C 3.035156 -5.625 2.691406 -5.535156 2.390625 -5.359375 C 2.085938 -5.191406 1.84375 -4.914062 1.65625 -4.53125 C 1.476562 -4.15625 1.390625 -3.675781 1.390625 -3.09375 C 1.390625 -2.507812 1.476562 -2.03125 1.65625 -1.65625 C 1.84375 -1.28125 2.085938 -1.003906 2.390625 -0.828125 C 2.691406 -0.648438 3.035156 -0.5625 3.421875 -0.5625 C 3.867188 -0.5625 4.234375 -0.660156 4.515625 -0.859375 C 4.804688 -1.066406 5.019531 -1.394531 5.15625 -1.84375 L 5.265625 -1.84375 L 5.75 -1.609375 C 5.601562 -1.054688 5.332031 -0.632812 4.9375 -0.34375 C 4.539062 -0.0507812 4.035156 0.09375 3.421875 0.09375 Z M 3.421875 0.09375 "/></g></g><g transform="translate(149.915326, 28.231142)"><g><path d="M 1.671875 -2.921875 L 1.671875 -0.59375 L 4.8125 -0.59375 L 4.8125 0 L 0.9375 0 L 0.9375 -6.1875 L 4.75 -6.1875 L 4.75 -5.59375 L 1.671875 -5.59375 L 1.671875 -3.515625 L 4.390625 -3.515625 L 4.390625 -2.921875 Z M 1.671875 -2.921875 "/></g></g></g></svg>