<svg xmlns="http://www.w3.org/2000/svg" xmlns:xlink="http://www.w3.org/1999/xlink" width="225" zoomAndPan="magnify" viewBox="0 0 168.75 37.5" height="50" preserveAspectRatio="xMidYMid meet" version="1.0"><defs><g/><clipPath id="6888fa50d6"><path d="M 0.988281 0 L 35.421875 0 L 35.421875 34.433594 L 0.988281 34.433594 Z M 0.988281 0 " clip-rule="nonzero"/></clipPath><clipPath id="c30c6d0cb1"><path d="M 18.203125 0 C 8.695312 0 0.988281 7.707031 0.988281 17.21875 C 0.988281 26.726562 8.695312 34.433594 18.203125 34.433594 C 27.714844 34.433594 35.421875 26.726562 35.421875 17.21875 C 35.421875 7.707031 27.714844 0 18.203125 0 Z M 18.203125 0 " clip-rule="nonzero"/></clipPath><clipPath id="97b9c23a70"><path d="M 8.054688 1.480469 L 30.996094 1.480469 L 30.996094 37.007812 L 8.054688 37.007812 Z M 8.054688 1.480469 " clip-rule="nonzero"/></clipPath></defs><g clip-path="url(#6888fa50d6)"><g clip-path="url(#c30c6d0cb1)"><path fill="#ffde59" d="M 0.988281 0 L 35.421875 0 L 35.421875 34.433594 L 0.988281 34.433594 Z M 0.988281 0 " fill-opacity="1" fill-rule="nonzero"/></g></g><g clip-path="url(#97b9c23a70)"><path fill="#b206ff" d="M 29.953125 1.480469 L 17.257812 1.480469 C 17.105469 1.480469 16.96875 1.566406 16.898438 1.699219 L 8.765625 17.578125 C 8.703125 17.703125 8.707031 17.851562 8.78125 17.972656 C 8.855469 18.089844 8.984375 18.164062 9.128906 18.164062 L 17.589844 18.164062 L 8.308594 36.417969 C 8.21875 36.597656 8.273438 36.820312 8.441406 36.933594 C 8.511719 36.984375 8.589844 37.007812 8.671875 37.007812 C 8.78125 37.007812 8.890625 36.960938 8.96875 36.871094 L 29.796875 13.703125 C 29.90625 13.582031 29.929688 13.414062 29.867188 13.269531 C 29.800781 13.121094 29.65625 13.027344 29.496094 13.027344 L 21.019531 13.027344 L 30.261719 2.144531 C 30.363281 2.027344 30.386719 1.855469 30.320312 1.714844 C 30.253906 1.570312 30.109375 1.480469 29.953125 1.480469 Z M 29.953125 1.480469 " fill-opacity="1" fill-rule="nonzero"/></g><g fill="#b206ff" fill-opacity="1"><g transform="translate(39.198312, 16.710303)"><g><path d="M 11.890625 0 L 1 0 L 1 -9.03125 L 11.390625 -9.03125 L 11.390625 -6.796875 L 4.796875 -6.796875 L 4.796875 -5.375 L 10.359375 -5.375 L 10.359375 -3.640625 L 4.796875 -3.640625 L 4.796875 -2.234375 L 11.890625 -2.234375 Z M 11.890625 0 "/></g></g></g><g fill="#b206ff" fill-opacity="1"><g transform="translate(52.248135, 16.710303)"><g><path d="M 15.171875 0 L 11.328125 0 L 10.484375 -1.484375 L 4.78125 -1.484375 L 3.9375 0 L 0.09375 0 L 5.875 -9.03125 L 9.390625 -9.03125 Z M 9.203125 -3.71875 L 7.640625 -6.453125 L 6.0625 -3.71875 Z M 9.203125 -3.71875 "/></g></g></g><g fill="#b206ff" fill-opacity="1"><g transform="translate(68.172669, 16.710303)"><g><path d="M 5.96875 0.1875 C 4.75 0.1875 3.765625 0.0546875 3.015625 -0.203125 C 2.265625 -0.460938 1.691406 -0.820312 1.296875 -1.28125 C 0.910156 -1.738281 0.648438 -2.269531 0.515625 -2.875 L 4.546875 -2.875 C 4.835938 -2.445312 5.3125 -2.234375 5.96875 -2.234375 C 6.613281 -2.234375 7.085938 -2.445312 7.390625 -2.875 C 7.410156 -2.914062 7.421875 -2.953125 7.421875 -2.984375 C 7.421875 -3.097656 7.269531 -3.179688 6.96875 -3.234375 C 6.675781 -3.296875 6.234375 -3.34375 5.640625 -3.375 C 4.878906 -3.40625 4.085938 -3.484375 3.265625 -3.609375 C 1.421875 -3.890625 0.5 -4.628906 0.5 -5.828125 C 0.5 -5.929688 0.503906 -6.039062 0.515625 -6.15625 C 0.648438 -6.75 0.910156 -7.273438 1.296875 -7.734375 C 1.691406 -8.191406 2.265625 -8.550781 3.015625 -8.8125 C 3.765625 -9.082031 4.75 -9.21875 5.96875 -9.21875 C 7.1875 -9.21875 8.171875 -9.082031 8.921875 -8.8125 C 9.671875 -8.550781 10.238281 -8.191406 10.625 -7.734375 C 11.007812 -7.273438 11.269531 -6.75 11.40625 -6.15625 L 7.390625 -6.15625 C 7.085938 -6.582031 6.613281 -6.796875 5.96875 -6.796875 C 5.3125 -6.796875 4.835938 -6.582031 4.546875 -6.15625 C 4.523438 -6.113281 4.515625 -6.082031 4.515625 -6.0625 C 4.515625 -5.957031 4.65625 -5.878906 4.9375 -5.828125 C 5.226562 -5.785156 5.65625 -5.742188 6.21875 -5.703125 C 6.78125 -5.671875 7.375 -5.617188 8 -5.546875 C 8.632812 -5.472656 9.226562 -5.34375 9.78125 -5.15625 C 10.332031 -4.96875 10.765625 -4.691406 11.078125 -4.328125 C 11.316406 -4.046875 11.4375 -3.6875 11.4375 -3.25 C 11.4375 -3.132812 11.425781 -3.007812 11.40625 -2.875 C 11.269531 -2.269531 11.007812 -1.738281 10.625 -1.28125 C 10.238281 -0.820312 9.671875 -0.460938 8.921875 -0.203125 C 8.171875 0.0546875 7.1875 0.1875 5.96875 0.1875 Z M 5.96875 0.1875 "/></g></g></g><g fill="#b206ff" fill-opacity="1"><g transform="translate(80.782164, 16.710303)"><g><path d="M 11.890625 0 L 1 0 L 1 -9.03125 L 11.390625 -9.03125 L 11.390625 -6.796875 L 4.796875 -6.796875 L 4.796875 -5.375 L 10.359375 -5.375 L 10.359375 -3.640625 L 4.796875 -3.640625 L 4.796875 -2.234375 L 11.890625 -2.234375 Z M 11.890625 0 "/></g></g></g><g fill="#b206ff" fill-opacity="1"><g transform="translate(93.831987, 16.710303)"><g><path d="M 6.828125 0.1875 C 4.597656 0.1875 2.957031 -0.269531 1.90625 -1.1875 C 0.96875 -2 0.5 -3.109375 0.5 -4.515625 C 0.5 -5.910156 0.96875 -7.019531 1.90625 -7.84375 C 2.957031 -8.757812 4.597656 -9.21875 6.828125 -9.21875 C 9.054688 -9.21875 10.695312 -8.757812 11.75 -7.84375 C 12.6875 -7.019531 13.15625 -5.910156 13.15625 -4.515625 C 13.15625 -3.109375 12.6875 -2 11.75 -1.1875 C 10.695312 -0.269531 9.054688 0.1875 6.828125 0.1875 Z M 6.828125 -2.234375 C 7.742188 -2.234375 8.414062 -2.492188 8.84375 -3.015625 C 9.1875 -3.441406 9.359375 -3.941406 9.359375 -4.515625 C 9.359375 -5.085938 9.1875 -5.582031 8.84375 -6 C 8.414062 -6.53125 7.742188 -6.796875 6.828125 -6.796875 C 5.910156 -6.796875 5.238281 -6.53125 4.8125 -6 C 4.46875 -5.582031 4.296875 -5.085938 4.296875 -4.515625 C 4.296875 -3.941406 4.46875 -3.441406 4.8125 -3.015625 C 5.238281 -2.492188 5.910156 -2.234375 6.828125 -2.234375 Z M 6.828125 -2.234375 "/></g></g></g><g fill="#b206ff" fill-opacity="1"><g transform="translate(108.152467, 16.710303)"><g><path d="M 6.34375 0.1875 C 4.144531 0.1875 2.597656 -0.265625 1.703125 -1.171875 C 0.941406 -1.941406 0.5625 -3.050781 0.5625 -4.5 L 0.5625 -9.03125 L 4.359375 -9.03125 L 4.359375 -4.5 C 4.359375 -3.875 4.460938 -3.378906 4.671875 -3.015625 C 4.984375 -2.492188 5.539062 -2.234375 6.34375 -2.234375 C 7.164062 -2.234375 7.726562 -2.492188 8.03125 -3.015625 C 8.25 -3.390625 8.359375 -3.882812 8.359375 -4.5 L 8.359375 -9.03125 L 12.140625 -9.03125 L 12.140625 -4.453125 C 12.140625 -3.035156 11.765625 -1.941406 11.015625 -1.171875 C 10.109375 -0.265625 8.550781 0.1875 6.34375 0.1875 Z M 6.34375 0.1875 "/></g></g></g><g fill="#b206ff" fill-opacity="1"><g transform="translate(121.523097, 16.710303)"><g><path d="M 7.703125 0 L 3.921875 0 L 3.921875 -6.796875 L 0.375 -6.796875 L 0.375 -9.03125 L 11.234375 -9.03125 L 11.234375 -6.796875 L 7.703125 -6.796875 Z M 7.703125 0 "/></g></g></g><g fill="#b206ff" fill-opacity="1"><g transform="translate(133.805488, 16.710303)"><g><path d="M 1.921875 0 L 0.1875 0 L 0.1875 -1.734375 L 1.921875 -1.734375 Z M 1.921875 0 "/></g></g></g><g fill="#b206ff" fill-opacity="1"><g transform="translate(136.589377, 16.710303)"><g><path d="M 6.828125 0.1875 C 4.597656 0.1875 2.957031 -0.269531 1.90625 -1.1875 C 0.96875 -1.988281 0.5 -3.09375 0.5 -4.5 C 0.5 -5.90625 0.96875 -7.019531 1.90625 -7.84375 C 2.957031 -8.75 4.597656 -9.203125 6.828125 -9.203125 C 8.140625 -9.203125 9.222656 -9.050781 10.078125 -8.75 C 10.929688 -8.457031 11.59375 -8.050781 12.0625 -7.53125 C 12.539062 -7.007812 12.859375 -6.410156 13.015625 -5.734375 L 9.03125 -5.734375 C 8.632812 -6.441406 7.898438 -6.796875 6.828125 -6.796875 C 5.910156 -6.796875 5.238281 -6.53125 4.8125 -6 C 4.46875 -5.582031 4.296875 -5.082031 4.296875 -4.5 C 4.296875 -3.925781 4.46875 -3.429688 4.8125 -3.015625 C 5.238281 -2.484375 5.910156 -2.21875 6.828125 -2.21875 C 7.898438 -2.21875 8.632812 -2.570312 9.03125 -3.28125 L 13.015625 -3.28125 C 12.859375 -2.601562 12.539062 -2.003906 12.0625 -1.484375 C 11.59375 -0.960938 10.929688 -0.550781 10.078125 -0.25 C 9.222656 0.0390625 8.140625 0.1875 6.828125 0.1875 Z M 6.828125 0.1875 "/></g></g></g><g fill="#b206ff" fill-opacity="1"><g transform="translate(150.771468, 16.710303)"><g><path d="M 6.828125 0.1875 C 4.597656 0.1875 2.957031 -0.269531 1.90625 -1.1875 C 0.96875 -2 0.5 -3.109375 0.5 -4.515625 C 0.5 -5.910156 0.96875 -7.019531 1.90625 -7.84375 C 2.957031 -8.757812 4.597656 -9.21875 6.828125 -9.21875 C 9.054688 -9.21875 10.695312 -8.757812 11.75 -7.84375 C 12.6875 -7.019531 13.15625 -5.910156 13.15625 -4.515625 C 13.15625 -3.109375 12.6875 -2 11.75 -1.1875 C 10.695312 -0.269531 9.054688 0.1875 6.828125 0.1875 Z M 6.828125 -2.234375 C 7.742188 -2.234375 8.414062 -2.492188 8.84375 -3.015625 C 9.1875 -3.441406 9.359375 -3.941406 9.359375 -4.515625 C 9.359375 -5.085938 9.1875 -5.582031 8.84375 -6 C 8.414062 -6.53125 7.742188 -6.796875 6.828125 -6.796875 C 5.910156 -6.796875 5.238281 -6.53125 4.8125 -6 C 4.46875 -5.582031 4.296875 -5.085938 4.296875 -4.515625 C 4.296875 -3.941406 4.46875 -3.441406 4.8125 -3.015625 C 5.238281 -2.492188 5.910156 -2.234375 6.828125 -2.234375 Z M 6.828125 -2.234375 "/></g></g></g><g fill="#000000" fill-opacity="1"><g transform="translate(39.953785, 26.454793)"><g><path d="M 2.265625 -4.78125 C 2.753906 -4.78125 3.171875 -4.691406 3.515625 -4.515625 C 3.867188 -4.347656 4.140625 -4.085938 4.328125 -3.734375 C 4.515625 -3.378906 4.609375 -2.929688 4.609375 -2.390625 C 4.609375 -1.859375 4.515625 -1.410156 4.328125 -1.046875 C 4.140625 -0.691406 3.867188 -0.425781 3.515625 -0.25 C 3.171875 -0.0820312 2.753906 0 2.265625 0 L 0.71875 0 L 0.71875 -4.78125 Z M 2.21875 -0.484375 C 2.613281 -0.484375 2.941406 -0.539062 3.203125 -0.65625 C 3.460938 -0.78125 3.660156 -0.984375 3.796875 -1.265625 C 3.929688 -1.554688 4 -1.929688 4 -2.390625 C 4 -2.859375 3.929688 -3.234375 3.796875 -3.515625 C 3.660156 -3.796875 3.460938 -4 3.203125 -4.125 C 2.941406 -4.25 2.613281 -4.3125 2.21875 -4.3125 L 1.28125 -4.3125 L 1.28125 -0.484375 Z M 2.21875 -0.484375 "/></g></g><g transform="translate(45.039602, 26.454793)"><g><path d="M 1.28125 -2.25 L 1.28125 -0.46875 L 3.71875 -0.46875 L 3.71875 0 L 0.71875 0 L 0.71875 -4.78125 L 3.671875 -4.78125 L 3.671875 -4.328125 L 1.28125 -4.328125 L 1.28125 -2.71875 L 3.390625 -2.71875 L 3.390625 -2.25 Z M 1.28125 -2.25 "/></g></g><g transform="translate(49.081419, 26.454793)"><g><path d="M 2.609375 0 L 1.859375 0 L 0.203125 -4.78125 L 0.8125 -4.78125 L 2.203125 -0.703125 L 2.296875 -0.703125 L 3.671875 -4.78125 L 4.265625 -4.78125 Z M 2.609375 0 "/></g></g><g transform="translate(53.551964, 26.454793)"><g/></g><g transform="translate(55.194873, 26.454793)"><g><path d="M 2.203125 -2.078125 L 0.34375 -2.078125 L 0.34375 -2.5625 L 2.203125 -2.5625 Z M 2.203125 -2.078125 "/></g></g><g transform="translate(57.734508, 26.454793)"><g/></g><g transform="translate(59.377417, 26.454793)"><g><path d="M 2.265625 -4.78125 C 2.753906 -4.78125 3.171875 -4.691406 3.515625 -4.515625 C 3.867188 -4.347656 4.140625 -4.085938 4.328125 -3.734375 C 4.515625 -3.378906 4.609375 -2.929688 4.609375 -2.390625 C 4.609375 -1.859375 4.515625 -1.410156 4.328125 -1.046875 C 4.140625 -0.691406 3.867188 -0.425781 3.515625 -0.25 C 3.171875 -0.0820312 2.753906 0 2.265625 0 L 0.71875 0 L 0.71875 -4.78125 Z M 2.21875 -0.484375 C 2.613281 -0.484375 2.941406 -0.539062 3.203125 -0.65625 C 3.460938 -0.78125 3.660156 -0.984375 3.796875 -1.265625 C 3.929688 -1.554688 4 -1.929688 4 -2.390625 C 4 -2.859375 3.929688 -3.234375 3.796875 -3.515625 C 3.660156 -3.796875 3.460938 -4 3.203125 -4.125 C 2.941406 -4.25 2.613281 -4.3125 2.21875 -4.3125 L 1.28125 -4.3125 L 1.28125 -0.484375 Z M 2.21875 -0.484375 "/></g></g><g transform="translate(64.463234, 26.454793)"><g><path d="M 1.28125 -2.25 L 1.28125 -0.46875 L 3.71875 -0.46875 L 3.71875 0 L 0.71875 0 L 0.71875 -4.78125 L 3.671875 -4.78125 L 3.671875 -4.328125 L 1.28125 -4.328125 L 1.28125 -2.71875 L 3.390625 -2.71875 L 3.390625 -2.25 Z M 1.28125 -2.25 "/></g></g><g transform="translate(68.505052, 26.454793)"><g><path d="M 2.09375 0.0625 C 1.789062 0.0625 1.519531 0.0234375 1.28125 -0.046875 C 1.039062 -0.128906 0.835938 -0.238281 0.671875 -0.375 C 0.515625 -0.507812 0.398438 -0.65625 0.328125 -0.8125 L 0.640625 -1.1875 L 0.71875 -1.1875 C 1.007812 -0.6875 1.46875 -0.4375 2.09375 -0.4375 C 2.445312 -0.4375 2.710938 -0.507812 2.890625 -0.65625 C 3.066406 -0.8125 3.15625 -1.023438 3.15625 -1.296875 C 3.15625 -1.453125 3.125 -1.582031 3.0625 -1.6875 C 3.007812 -1.800781 2.914062 -1.894531 2.78125 -1.96875 C 2.644531 -2.050781 2.460938 -2.117188 2.234375 -2.171875 L 1.6875 -2.3125 C 1.269531 -2.414062 0.960938 -2.578125 0.765625 -2.796875 C 0.566406 -3.015625 0.46875 -3.289062 0.46875 -3.625 C 0.46875 -3.863281 0.523438 -4.078125 0.640625 -4.265625 C 0.765625 -4.453125 0.941406 -4.597656 1.171875 -4.703125 C 1.410156 -4.804688 1.695312 -4.859375 2.03125 -4.859375 C 2.382812 -4.859375 2.6875 -4.804688 2.9375 -4.703125 C 3.1875 -4.597656 3.382812 -4.445312 3.53125 -4.25 L 3.265625 -3.875 L 3.171875 -3.875 C 3.035156 -4.039062 2.875 -4.160156 2.6875 -4.234375 C 2.5 -4.316406 2.28125 -4.359375 2.03125 -4.359375 C 1.695312 -4.359375 1.445312 -4.296875 1.28125 -4.171875 C 1.113281 -4.046875 1.03125 -3.867188 1.03125 -3.640625 C 1.03125 -3.421875 1.085938 -3.242188 1.203125 -3.109375 C 1.328125 -2.984375 1.539062 -2.890625 1.84375 -2.828125 L 2.40625 -2.6875 C 2.875 -2.582031 3.210938 -2.414062 3.421875 -2.1875 C 3.628906 -1.957031 3.734375 -1.664062 3.734375 -1.3125 C 3.734375 -1.039062 3.671875 -0.800781 3.546875 -0.59375 C 3.429688 -0.382812 3.25 -0.222656 3 -0.109375 C 2.75 0.00390625 2.445312 0.0625 2.09375 0.0625 Z M 2.09375 0.0625 "/></g></g><g transform="translate(72.605778, 26.454793)"><g><path d="M 1.28125 0 L 0.71875 0 L 0.71875 -4.78125 L 1.28125 -4.78125 Z M 1.28125 0 "/></g></g><g transform="translate(74.618505, 26.454793)"><g><path d="M 2.515625 0.0625 C 2.117188 0.0625 1.765625 -0.0234375 1.453125 -0.203125 C 1.148438 -0.390625 0.910156 -0.664062 0.734375 -1.03125 C 0.566406 -1.40625 0.484375 -1.859375 0.484375 -2.390625 C 0.484375 -2.929688 0.570312 -3.382812 0.75 -3.75 C 0.9375 -4.113281 1.191406 -4.390625 1.515625 -4.578125 C 1.847656 -4.765625 2.226562 -4.859375 2.65625 -4.859375 C 3.113281 -4.859375 3.488281 -4.773438 3.78125 -4.609375 C 4.070312 -4.441406 4.28125 -4.195312 4.40625 -3.875 L 4.046875 -3.65625 L 3.953125 -3.65625 C 3.835938 -3.90625 3.671875 -4.082031 3.453125 -4.1875 C 3.242188 -4.289062 2.976562 -4.34375 2.65625 -4.34375 C 1.601562 -4.34375 1.078125 -3.691406 1.078125 -2.390625 C 1.078125 -1.710938 1.207031 -1.21875 1.46875 -0.90625 C 1.738281 -0.59375 2.109375 -0.4375 2.578125 -0.4375 C 3.015625 -0.4375 3.34375 -0.535156 3.5625 -0.734375 C 3.78125 -0.929688 3.890625 -1.242188 3.890625 -1.671875 L 3.890625 -2.09375 L 2.53125 -2.09375 L 2.53125 -2.546875 L 4.4375 -2.546875 L 4.4375 0 L 3.921875 0 L 3.921875 -0.640625 L 3.84375 -0.65625 C 3.71875 -0.40625 3.539062 -0.222656 3.3125 -0.109375 C 3.09375 0.00390625 2.828125 0.0625 2.515625 0.0625 Z M 2.515625 0.0625 "/></g></g><g transform="translate(79.593049, 26.454793)"><g><path d="M 1.265625 0 L 0.71875 0 L 0.71875 -4.78125 L 1.40625 -4.78125 L 3.75 -1.125 L 3.828125 -1.140625 L 3.828125 -4.78125 L 4.375 -4.78125 L 4.375 0 L 3.78125 0 L 1.359375 -3.90625 L 1.265625 -3.890625 Z M 1.265625 0 "/></g></g><g transform="translate(84.69523, 26.454793)"><g/></g><g transform="translate(86.338138, 26.454793)"><g><path d="M 2.203125 -2.078125 L 0.34375 -2.078125 L 0.34375 -2.5625 L 2.203125 -2.5625 Z M 2.203125 -2.078125 "/></g></g><g transform="translate(88.877774, 26.454793)"><g/></g><g transform="translate(90.520683, 26.454793)"><g><path d="M 3.53125 -4.78125 L 3.53125 -4.328125 L 1.28125 -4.328125 L 1.28125 -2.578125 L 3.3125 -2.578125 L 3.3125 -2.109375 L 1.28125 -2.109375 L 1.28125 0 L 0.71875 0 L 0.71875 -4.78125 Z M 3.53125 -4.78125 "/></g></g><g transform="translate(94.313773, 26.454793)"><g><path d="M 0.71875 0 L 0.71875 -4.78125 L 2.46875 -4.78125 C 2.78125 -4.78125 3.046875 -4.726562 3.265625 -4.625 C 3.484375 -4.519531 3.644531 -4.367188 3.75 -4.171875 C 3.863281 -3.984375 3.921875 -3.757812 3.921875 -3.5 C 3.921875 -3.195312 3.847656 -2.945312 3.703125 -2.75 C 3.554688 -2.5625 3.328125 -2.421875 3.015625 -2.328125 L 3.015625 -2.25 C 3.160156 -2.1875 3.28125 -2.085938 3.375 -1.953125 C 3.476562 -1.828125 3.570312 -1.632812 3.65625 -1.375 L 4.09375 0 L 3.515625 0 L 3.046875 -1.46875 C 2.984375 -1.632812 2.914062 -1.765625 2.84375 -1.859375 C 2.769531 -1.960938 2.675781 -2.035156 2.5625 -2.078125 C 2.445312 -2.117188 2.304688 -2.140625 2.140625 -2.140625 L 1.28125 -2.140625 L 1.28125 0 Z M 2.453125 -2.625 C 2.742188 -2.625 2.960938 -2.691406 3.109375 -2.828125 C 3.253906 -2.972656 3.328125 -3.1875 3.328125 -3.46875 C 3.328125 -3.75 3.253906 -3.957031 3.109375 -4.09375 C 2.960938 -4.238281 2.742188 -4.3125 2.453125 -4.3125 L 1.28125 -4.3125 L 1.28125 -2.625 Z M 2.453125 -2.625 "/></g></g><g transform="translate(98.745045, 26.454793)"><g><path d="M 1.28125 -2.25 L 1.28125 -0.46875 L 3.71875 -0.46875 L 3.71875 0 L 0.71875 0 L 0.71875 -4.78125 L 3.671875 -4.78125 L 3.671875 -4.328125 L 1.28125 -4.328125 L 1.28125 -2.71875 L 3.390625 -2.71875 L 3.390625 -2.25 Z M 1.28125 -2.25 "/></g></g><g transform="translate(102.786862, 26.454793)"><g><path d="M 1.28125 -2.25 L 1.28125 -0.46875 L 3.71875 -0.46875 L 3.71875 0 L 0.71875 0 L 0.71875 -4.78125 L 3.671875 -4.78125 L 3.671875 -4.328125 L 1.28125 -4.328125 L 1.28125 -2.71875 L 3.390625 -2.71875 L 3.390625 -2.25 Z M 1.28125 -2.25 "/></g></g><g transform="translate(106.828679, 26.454793)"><g><path d="M 1.28125 -4.78125 L 1.28125 -0.46875 L 3.59375 -0.46875 L 3.59375 0 L 0.71875 0 L 0.71875 -4.78125 Z M 1.28125 -4.78125 "/></g></g><g transform="translate(110.621769, 26.454793)"><g><path d="M 4.3125 0 L 3.703125 0 L 3.265625 -1.3125 L 1.21875 -1.3125 L 0.78125 0 L 0.1875 0 L 1.859375 -4.78125 L 2.640625 -4.78125 Z M 2.203125 -4.203125 L 1.375 -1.78125 L 3.109375 -1.78125 L 2.28125 -4.203125 Z M 2.203125 -4.203125 "/></g></g><g transform="translate(115.118496, 26.454793)"><g><path d="M 1.265625 0 L 0.71875 0 L 0.71875 -4.78125 L 1.40625 -4.78125 L 3.75 -1.125 L 3.828125 -1.140625 L 3.828125 -4.78125 L 4.375 -4.78125 L 4.375 0 L 3.78125 0 L 1.359375 -3.90625 L 1.265625 -3.890625 Z M 1.265625 0 "/></g></g><g transform="translate(120.220676, 26.454793)"><g><path d="M 2.640625 0.0625 C 2.222656 0.0625 1.847656 -0.03125 1.515625 -0.21875 C 1.191406 -0.40625 0.9375 -0.679688 0.75 -1.046875 C 0.570312 -1.421875 0.484375 -1.867188 0.484375 -2.390625 C 0.484375 -2.910156 0.570312 -3.351562 0.75 -3.71875 C 0.9375 -4.09375 1.191406 -4.375 1.515625 -4.5625 C 1.847656 -4.757812 2.222656 -4.859375 2.640625 -4.859375 C 3.085938 -4.859375 3.457031 -4.769531 3.75 -4.59375 C 4.050781 -4.425781 4.269531 -4.175781 4.40625 -3.84375 L 4.046875 -3.59375 L 3.953125 -3.59375 C 3.828125 -3.863281 3.660156 -4.054688 3.453125 -4.171875 C 3.242188 -4.285156 2.972656 -4.34375 2.640625 -4.34375 C 2.335938 -4.34375 2.070312 -4.273438 1.84375 -4.140625 C 1.613281 -4.015625 1.425781 -3.804688 1.28125 -3.515625 C 1.144531 -3.222656 1.078125 -2.847656 1.078125 -2.390625 C 1.078125 -1.941406 1.144531 -1.570312 1.28125 -1.28125 C 1.425781 -0.988281 1.613281 -0.773438 1.84375 -0.640625 C 2.070312 -0.503906 2.335938 -0.4375 2.640625 -0.4375 C 2.992188 -0.4375 3.28125 -0.515625 3.5 -0.671875 C 3.71875 -0.828125 3.878906 -1.082031 3.984375 -1.4375 L 4.0625 -1.4375 L 4.4375 -1.25 C 4.332031 -0.820312 4.125 -0.492188 3.8125 -0.265625 C 3.507812 -0.046875 3.117188 0.0625 2.640625 0.0625 Z M 2.640625 0.0625 "/></g></g><g transform="translate(124.913766, 26.454793)"><g><path d="M 1.28125 -2.25 L 1.28125 -0.46875 L 3.71875 -0.46875 L 3.71875 0 L 0.71875 0 L 0.71875 -4.78125 L 3.671875 -4.78125 L 3.671875 -4.328125 L 1.28125 -4.328125 L 1.28125 -2.71875 L 3.390625 -2.71875 L 3.390625 -2.25 Z M 1.28125 -2.25 "/></g></g></g></svg>