<svg xmlns="http://www.w3.org/2000/svg" xmlns:xlink="http://www.w3.org/1999/xlink" width="181" zoomAndPan="magnify" viewBox="0 0 135.75 74.999997" height="100" preserveAspectRatio="xMidYMid meet" version="1.0"><defs><g/><clipPath id="2b0a3525dd"><path d="M 41.75 0.0703125 L 93.75 0.0703125 L 93.75 52.066406 L 41.75 52.066406 Z M 41.75 0.0703125 " clip-rule="nonzero"/></clipPath><clipPath id="b6de1d7eca"><path d="M 67.75 0.0703125 C 53.390625 0.0703125 41.75 11.710938 41.75 26.066406 C 41.75 40.425781 53.390625 52.066406 67.75 52.066406 C 82.109375 52.066406 93.75 40.425781 93.75 26.066406 C 93.75 11.710938 82.109375 0.0703125 67.75 0.0703125 Z M 67.75 0.0703125 " clip-rule="nonzero"/></clipPath><clipPath id="fd912b77f6"><path d="M 52.421875 2.304688 L 87 2.304688 L 87 56 L 52.421875 56 Z M 52.421875 2.304688 " clip-rule="nonzero"/></clipPath></defs><g clip-path="url(#2b0a3525dd)"><g clip-path="url(#b6de1d7eca)"><path fill="#ffde59" d="M 41.75 0.0703125 L 93.75 0.0703125 L 93.75 52.066406 L 41.75 52.066406 Z M 41.75 0.0703125 " fill-opacity="1" fill-rule="nonzero"/></g></g><g clip-path="url(#fd912b77f6)"><path fill="#b206ff" d="M 85.496094 2.304688 L 66.324219 2.304688 C 66.09375 2.304688 65.886719 2.433594 65.78125 2.632812 L 53.5 26.613281 C 53.402344 26.800781 53.410156 27.027344 53.523438 27.207031 C 53.636719 27.386719 53.832031 27.5 54.042969 27.5 L 66.824219 27.5 L 52.8125 55.0625 C 52.671875 55.335938 52.757812 55.667969 53.007812 55.84375 C 53.113281 55.914062 53.238281 55.949219 53.355469 55.949219 C 53.523438 55.949219 53.6875 55.878906 53.808594 55.746094 L 85.257812 20.757812 C 85.417969 20.582031 85.460938 20.324219 85.359375 20.105469 C 85.261719 19.882812 85.042969 19.742188 84.804688 19.742188 L 72.003906 19.742188 L 85.960938 3.308594 C 86.113281 3.128906 86.148438 2.875 86.046875 2.65625 C 85.945312 2.441406 85.730469 2.304688 85.496094 2.304688 Z M 85.496094 2.304688 " fill-opacity="1" fill-rule="nonzero"/></g><g fill="#b206ff" fill-opacity="1"><g transform="translate(2.114824, 70.670279)"><g><path d="M 12.453125 0 L 1.0625 0 L 1.0625 -9.453125 L 11.921875 -9.453125 L 11.921875 -7.125 L 5.015625 -7.125 L 5.015625 -5.640625 L 10.859375 -5.640625 L 10.859375 -3.8125 L 5.015625 -3.8125 L 5.015625 -2.34375 L 12.453125 -2.34375 Z M 12.453125 0 "/></g></g></g><g fill="#b206ff" fill-opacity="1"><g transform="translate(15.793866, 70.670279)"><g><path d="M 15.890625 0 L 11.859375 0 L 10.96875 -1.546875 L 5.015625 -1.546875 L 4.125 0 L 0.09375 0 L 6.15625 -9.453125 L 9.828125 -9.453125 Z M 9.640625 -3.890625 L 8 -6.75 L 6.34375 -3.890625 Z M 9.640625 -3.890625 "/></g></g></g><g fill="#b206ff" fill-opacity="1"><g transform="translate(32.486295, 70.670279)"><g><path d="M 6.25 0.203125 C 4.96875 0.203125 3.9375 0.0664062 3.15625 -0.203125 C 2.375 -0.484375 1.78125 -0.863281 1.375 -1.34375 C 0.96875 -1.820312 0.691406 -2.375 0.546875 -3 L 4.765625 -3 C 5.078125 -2.550781 5.570312 -2.328125 6.25 -2.328125 C 6.925781 -2.328125 7.421875 -2.550781 7.734375 -3 C 7.765625 -3.050781 7.78125 -3.09375 7.78125 -3.125 C 7.78125 -3.238281 7.617188 -3.328125 7.296875 -3.390625 C 6.984375 -3.453125 6.519531 -3.5 5.90625 -3.53125 C 5.113281 -3.5625 4.285156 -3.644531 3.421875 -3.78125 C 1.492188 -4.070312 0.53125 -4.847656 0.53125 -6.109375 C 0.53125 -6.210938 0.535156 -6.320312 0.546875 -6.4375 C 0.691406 -7.070312 0.96875 -7.628906 1.375 -8.109375 C 1.78125 -8.585938 2.375 -8.960938 3.15625 -9.234375 C 3.9375 -9.515625 4.96875 -9.65625 6.25 -9.65625 C 7.53125 -9.65625 8.5625 -9.515625 9.34375 -9.234375 C 10.125 -8.960938 10.71875 -8.585938 11.125 -8.109375 C 11.53125 -7.628906 11.804688 -7.070312 11.953125 -6.4375 L 7.734375 -6.4375 C 7.421875 -6.882812 6.925781 -7.109375 6.25 -7.109375 C 5.570312 -7.109375 5.078125 -6.882812 4.765625 -6.4375 C 4.734375 -6.40625 4.71875 -6.375 4.71875 -6.34375 C 4.71875 -6.238281 4.867188 -6.160156 5.171875 -6.109375 C 5.472656 -6.054688 5.914062 -6.007812 6.5 -5.96875 C 7.09375 -5.9375 7.71875 -5.878906 8.375 -5.796875 C 9.039062 -5.722656 9.660156 -5.585938 10.234375 -5.390625 C 10.816406 -5.203125 11.273438 -4.914062 11.609375 -4.53125 C 11.859375 -4.238281 11.984375 -3.863281 11.984375 -3.40625 C 11.984375 -3.28125 11.972656 -3.144531 11.953125 -3 C 11.804688 -2.375 11.53125 -1.820312 11.125 -1.34375 C 10.71875 -0.863281 10.125 -0.484375 9.34375 -0.203125 C 8.5625 0.0664062 7.53125 0.203125 6.25 0.203125 Z M 6.25 0.203125 "/></g></g></g><g fill="#b206ff" fill-opacity="1"><g transform="translate(45.703769, 70.670279)"><g><path d="M 12.453125 0 L 1.0625 0 L 1.0625 -9.453125 L 11.921875 -9.453125 L 11.921875 -7.125 L 5.015625 -7.125 L 5.015625 -5.640625 L 10.859375 -5.640625 L 10.859375 -3.8125 L 5.015625 -3.8125 L 5.015625 -2.34375 L 12.453125 -2.34375 Z M 12.453125 0 "/></g></g></g><g fill="#b206ff" fill-opacity="1"><g transform="translate(59.382811, 70.670279)"><g><path d="M 7.15625 0.203125 C 4.8125 0.203125 3.085938 -0.273438 1.984375 -1.234375 C 1.015625 -2.085938 0.53125 -3.25 0.53125 -4.71875 C 0.53125 -6.1875 1.015625 -7.347656 1.984375 -8.203125 C 3.085938 -9.171875 4.8125 -9.65625 7.15625 -9.65625 C 9.488281 -9.65625 11.207031 -9.171875 12.3125 -8.203125 C 13.289062 -7.347656 13.78125 -6.1875 13.78125 -4.71875 C 13.78125 -3.25 13.289062 -2.085938 12.3125 -1.234375 C 11.207031 -0.273438 9.488281 0.203125 7.15625 0.203125 Z M 7.15625 -2.328125 C 8.113281 -2.328125 8.816406 -2.601562 9.265625 -3.15625 C 9.617188 -3.601562 9.796875 -4.125 9.796875 -4.71875 C 9.796875 -5.320312 9.617188 -5.84375 9.265625 -6.28125 C 8.816406 -6.84375 8.113281 -7.125 7.15625 -7.125 C 6.195312 -7.125 5.488281 -6.84375 5.03125 -6.28125 C 4.675781 -5.84375 4.5 -5.320312 4.5 -4.71875 C 4.5 -4.125 4.675781 -3.601562 5.03125 -3.15625 C 5.488281 -2.601562 6.195312 -2.328125 7.15625 -2.328125 Z M 7.15625 -2.328125 "/></g></g></g><g fill="#b206ff" fill-opacity="1"><g transform="translate(74.39381, 70.670279)"><g><path d="M 6.65625 0.203125 C 4.34375 0.203125 2.71875 -0.273438 1.78125 -1.234375 C 0.988281 -2.035156 0.59375 -3.195312 0.59375 -4.71875 L 0.59375 -9.453125 L 4.5625 -9.453125 L 4.5625 -4.71875 C 4.5625 -4.0625 4.671875 -3.539062 4.890625 -3.15625 C 5.210938 -2.601562 5.800781 -2.328125 6.65625 -2.328125 C 7.507812 -2.328125 8.09375 -2.601562 8.40625 -3.15625 C 8.632812 -3.550781 8.75 -4.070312 8.75 -4.71875 L 8.75 -9.453125 L 12.71875 -9.453125 L 12.71875 -4.671875 C 12.71875 -3.179688 12.320312 -2.035156 11.53125 -1.234375 C 10.59375 -0.273438 8.96875 0.203125 6.65625 0.203125 Z M 6.65625 0.203125 "/></g></g></g><g fill="#b206ff" fill-opacity="1"><g transform="translate(88.409138, 70.670279)"><g><path d="M 8.0625 0 L 4.09375 0 L 4.09375 -7.125 L 0.390625 -7.125 L 0.390625 -9.453125 L 11.765625 -9.453125 L 11.765625 -7.125 L 8.0625 -7.125 Z M 8.0625 0 "/></g></g></g><g fill="#b206ff" fill-opacity="1"><g transform="translate(101.283736, 70.670279)"><g><path d="M 2.015625 0 L 0.203125 0 L 0.203125 -1.8125 L 2.015625 -1.8125 Z M 2.015625 0 "/></g></g></g><g fill="#b206ff" fill-opacity="1"><g transform="translate(104.20163, 70.670279)"><g><path d="M 7.15625 0.203125 C 4.8125 0.203125 3.085938 -0.273438 1.984375 -1.234375 C 1.015625 -2.085938 0.53125 -3.25 0.53125 -4.71875 C 0.53125 -6.1875 1.015625 -7.347656 1.984375 -8.203125 C 3.085938 -9.160156 4.8125 -9.640625 7.15625 -9.640625 C 8.519531 -9.640625 9.648438 -9.484375 10.546875 -9.171875 C 11.441406 -8.859375 12.140625 -8.425781 12.640625 -7.875 C 13.140625 -7.332031 13.46875 -6.710938 13.625 -6.015625 L 9.453125 -6.015625 C 9.035156 -6.742188 8.269531 -7.109375 7.15625 -7.109375 C 6.195312 -7.109375 5.488281 -6.832031 5.03125 -6.28125 C 4.675781 -5.84375 4.5 -5.320312 4.5 -4.71875 C 4.5 -4.113281 4.675781 -3.59375 5.03125 -3.15625 C 5.488281 -2.601562 6.195312 -2.328125 7.15625 -2.328125 C 8.269531 -2.328125 9.035156 -2.695312 9.453125 -3.4375 L 13.625 -3.4375 C 13.46875 -2.726562 13.140625 -2.097656 12.640625 -1.546875 C 12.140625 -1.003906 11.441406 -0.578125 10.546875 -0.265625 C 9.648438 0.046875 8.519531 0.203125 7.15625 0.203125 Z M 7.15625 0.203125 "/></g></g></g><g fill="#b206ff" fill-opacity="1"><g transform="translate(119.067569, 70.670279)"><g><path d="M 7.15625 0.203125 C 4.8125 0.203125 3.085938 -0.273438 1.984375 -1.234375 C 1.015625 -2.085938 0.53125 -3.25 0.53125 -4.71875 C 0.53125 -6.1875 1.015625 -7.347656 1.984375 -8.203125 C 3.085938 -9.171875 4.8125 -9.65625 7.15625 -9.65625 C 9.488281 -9.65625 11.207031 -9.171875 12.3125 -8.203125 C 13.289062 -7.347656 13.78125 -6.1875 13.78125 -4.71875 C 13.78125 -3.25 13.289062 -2.085938 12.3125 -1.234375 C 11.207031 -0.273438 9.488281 0.203125 7.15625 0.203125 Z M 7.15625 -2.328125 C 8.113281 -2.328125 8.816406 -2.601562 9.265625 -3.15625 C 9.617188 -3.601562 9.796875 -4.125 9.796875 -4.71875 C 9.796875 -5.320312 9.617188 -5.84375 9.265625 -6.28125 C 8.816406 -6.84375 8.113281 -7.125 7.15625 -7.125 C 6.195312 -7.125 5.488281 -6.84375 5.03125 -6.28125 C 4.675781 -5.84375 4.5 -5.320312 4.5 -4.71875 C 4.5 -4.125 4.675781 -3.601562 5.03125 -3.15625 C 5.488281 -2.601562 6.195312 -2.328125 7.15625 -2.328125 Z M 7.15625 -2.328125 "/></g></g></g><g fill="#000000" fill-opacity="1"><g transform="translate(14.898145, 29.87276)"><g><path d="M 2.359375 -3.5625 L 2.359375 -3.109375 L 0.96875 -3.109375 L 0.96875 -2.03125 L 2.203125 -2.03125 L 2.203125 -1.578125 L 0.96875 -1.578125 L 0.96875 -0.453125 L 2.359375 -0.453125 L 2.359375 0 L 0.390625 0 L 0.390625 -3.5625 Z M 2.359375 -3.5625 "/></g></g></g><g fill="#000000" fill-opacity="1"><g transform="translate(18.017538, 29.87276)"><g><path d="M 1.484375 -3.125 C 1.316406 -3.125 1.175781 -3.078125 1.0625 -2.984375 C 0.957031 -2.898438 0.90625 -2.773438 0.90625 -2.609375 C 0.90625 -2.441406 0.96875 -2.3125 1.09375 -2.21875 C 1.226562 -2.132812 1.382812 -2.070312 1.5625 -2.03125 C 1.75 -1.988281 1.9375 -1.941406 2.125 -1.890625 C 2.3125 -1.835938 2.46875 -1.738281 2.59375 -1.59375 C 2.71875 -1.445312 2.78125 -1.242188 2.78125 -0.984375 C 2.78125 -0.722656 2.671875 -0.488281 2.453125 -0.28125 C 2.234375 -0.0703125 1.9375 0.03125 1.5625 0.03125 C 1.1875 0.03125 0.882812 -0.0507812 0.65625 -0.21875 C 0.425781 -0.394531 0.3125 -0.640625 0.3125 -0.953125 L 0.9375 -0.953125 C 0.945312 -0.796875 1.003906 -0.671875 1.109375 -0.578125 C 1.210938 -0.484375 1.363281 -0.4375 1.5625 -0.4375 C 1.757812 -0.4375 1.914062 -0.488281 2.03125 -0.59375 C 2.144531 -0.695312 2.203125 -0.816406 2.203125 -0.953125 C 2.203125 -1.085938 2.164062 -1.195312 2.09375 -1.28125 C 2.019531 -1.363281 1.925781 -1.421875 1.8125 -1.453125 C 1.707031 -1.492188 1.585938 -1.53125 1.453125 -1.5625 C 1.316406 -1.59375 1.179688 -1.628906 1.046875 -1.671875 C 0.910156 -1.710938 0.785156 -1.765625 0.671875 -1.828125 C 0.566406 -1.890625 0.476562 -1.984375 0.40625 -2.109375 C 0.34375 -2.234375 0.3125 -2.390625 0.3125 -2.578125 C 0.3125 -2.890625 0.421875 -3.140625 0.640625 -3.328125 C 0.867188 -3.515625 1.160156 -3.609375 1.515625 -3.609375 C 1.867188 -3.609375 2.148438 -3.523438 2.359375 -3.359375 C 2.578125 -3.191406 2.695312 -2.957031 2.71875 -2.65625 L 2.078125 -2.65625 C 2.066406 -2.789062 2.007812 -2.898438 1.90625 -2.984375 C 1.800781 -3.078125 1.660156 -3.125 1.484375 -3.125 Z M 1.484375 -3.125 "/></g></g></g><g fill="#000000" fill-opacity="1"><g transform="translate(21.54666, 29.87276)"><g><path d="M 0.203125 -3.109375 L 0.203125 -3.5625 L 2.6875 -3.5625 L 2.6875 -3.109375 L 1.734375 -3.109375 L 1.734375 0 L 1.15625 0 L 1.15625 -3.109375 Z M 0.203125 -3.109375 "/></g></g></g><g fill="#000000" fill-opacity="1"><g transform="translate(24.870921, 29.87276)"><g><path d="M 0.96875 -0.453125 L 1.546875 -0.453125 C 1.960938 -0.453125 2.28125 -0.566406 2.5 -0.796875 C 2.726562 -1.035156 2.84375 -1.359375 2.84375 -1.765625 C 2.84375 -2.179688 2.726562 -2.503906 2.5 -2.734375 C 2.28125 -2.972656 1.960938 -3.09375 1.546875 -3.09375 L 0.96875 -3.09375 Z M 1.546875 -3.5625 C 2.117188 -3.5625 2.578125 -3.398438 2.921875 -3.078125 C 3.265625 -2.753906 3.4375 -2.316406 3.4375 -1.765625 C 3.4375 -1.222656 3.265625 -0.789062 2.921875 -0.46875 C 2.578125 -0.15625 2.117188 0 1.546875 0 L 0.390625 0 L 0.390625 -3.5625 Z M 1.546875 -3.5625 "/></g></g></g><g fill="#000000" fill-opacity="1"><g transform="translate(106.813659, 29.87276)"><g><path d="M 0.265625 -0.046875 L 0.265625 -0.484375 C 0.347656 -0.554688 0.46875 -0.660156 0.625 -0.796875 C 0.789062 -0.941406 0.914062 -1.050781 1 -1.125 C 1.09375 -1.195312 1.203125 -1.296875 1.328125 -1.421875 C 1.460938 -1.546875 1.566406 -1.648438 1.640625 -1.734375 C 1.710938 -1.816406 1.785156 -1.914062 1.859375 -2.03125 C 2.003906 -2.226562 2.078125 -2.425781 2.078125 -2.625 C 2.078125 -3.050781 1.875 -3.265625 1.46875 -3.265625 C 1.257812 -3.265625 1.097656 -3.195312 0.984375 -3.0625 C 0.878906 -2.9375 0.820312 -2.765625 0.8125 -2.546875 L 0.25 -2.546875 C 0.257812 -2.941406 0.375 -3.238281 0.59375 -3.4375 C 0.820312 -3.644531 1.113281 -3.75 1.46875 -3.75 C 1.832031 -3.75 2.117188 -3.648438 2.328125 -3.453125 C 2.546875 -3.253906 2.65625 -2.988281 2.65625 -2.65625 C 2.65625 -2.40625 2.585938 -2.164062 2.453125 -1.9375 C 2.378906 -1.820312 2.304688 -1.71875 2.234375 -1.625 C 2.171875 -1.539062 2.082031 -1.4375 1.96875 -1.3125 C 1.851562 -1.195312 1.757812 -1.109375 1.6875 -1.046875 C 1.625 -0.984375 1.523438 -0.894531 1.390625 -0.78125 C 1.265625 -0.664062 1.175781 -0.582031 1.125 -0.53125 L 2.75 -0.53125 L 2.75 -0.046875 Z M 0.265625 -0.046875 "/></g></g></g><g fill="#000000" fill-opacity="1"><g transform="translate(110.204503, 29.87276)"><g><path d="M 1 -3.59375 C 1.175781 -3.6875 1.390625 -3.734375 1.640625 -3.734375 C 1.890625 -3.734375 2.101562 -3.6875 2.28125 -3.59375 C 2.457031 -3.5 2.59375 -3.363281 2.6875 -3.1875 C 2.789062 -3.019531 2.863281 -2.828125 2.90625 -2.609375 C 2.945312 -2.398438 2.96875 -2.15625 2.96875 -1.875 C 2.96875 -1.59375 2.945312 -1.34375 2.90625 -1.125 C 2.863281 -0.914062 2.789062 -0.722656 2.6875 -0.546875 C 2.59375 -0.378906 2.457031 -0.25 2.28125 -0.15625 C 2.101562 -0.0625 1.890625 -0.015625 1.640625 -0.015625 C 1.390625 -0.015625 1.175781 -0.0625 1 -0.15625 C 0.820312 -0.25 0.679688 -0.378906 0.578125 -0.546875 C 0.484375 -0.722656 0.414062 -0.914062 0.375 -1.125 C 0.332031 -1.34375 0.3125 -1.59375 0.3125 -1.875 C 0.3125 -2.15625 0.332031 -2.398438 0.375 -2.609375 C 0.414062 -2.828125 0.484375 -3.019531 0.578125 -3.1875 C 0.679688 -3.363281 0.820312 -3.5 1 -3.59375 Z M 1.640625 -3.203125 C 1.472656 -3.203125 1.335938 -3.164062 1.234375 -3.09375 C 1.128906 -3.03125 1.050781 -2.925781 1 -2.78125 C 0.914062 -2.550781 0.875 -2.25 0.875 -1.875 C 0.875 -1.5 0.914062 -1.191406 1 -0.953125 C 1.09375 -0.679688 1.300781 -0.546875 1.625 -0.546875 C 1.957031 -0.546875 2.175781 -0.679688 2.28125 -0.953125 C 2.363281 -1.191406 2.40625 -1.5 2.40625 -1.875 C 2.40625 -2.25 2.363281 -2.550781 2.28125 -2.78125 C 2.175781 -3.0625 1.960938 -3.203125 1.640625 -3.203125 Z M 1.640625 -3.203125 "/></g></g></g><g fill="#000000" fill-opacity="1"><g transform="translate(113.923131, 29.87276)"><g><path d="M 0.265625 -0.046875 L 0.265625 -0.484375 C 0.347656 -0.554688 0.46875 -0.660156 0.625 -0.796875 C 0.789062 -0.941406 0.914062 -1.050781 1 -1.125 C 1.09375 -1.195312 1.203125 -1.296875 1.328125 -1.421875 C 1.460938 -1.546875 1.566406 -1.648438 1.640625 -1.734375 C 1.710938 -1.816406 1.785156 -1.914062 1.859375 -2.03125 C 2.003906 -2.226562 2.078125 -2.425781 2.078125 -2.625 C 2.078125 -3.050781 1.875 -3.265625 1.46875 -3.265625 C 1.257812 -3.265625 1.097656 -3.195312 0.984375 -3.0625 C 0.878906 -2.9375 0.820312 -2.765625 0.8125 -2.546875 L 0.25 -2.546875 C 0.257812 -2.941406 0.375 -3.238281 0.59375 -3.4375 C 0.820312 -3.644531 1.113281 -3.75 1.46875 -3.75 C 1.832031 -3.75 2.117188 -3.648438 2.328125 -3.453125 C 2.546875 -3.253906 2.65625 -2.988281 2.65625 -2.65625 C 2.65625 -2.40625 2.585938 -2.164062 2.453125 -1.9375 C 2.378906 -1.820312 2.304688 -1.71875 2.234375 -1.625 C 2.171875 -1.539062 2.082031 -1.4375 1.96875 -1.3125 C 1.851562 -1.195312 1.757812 -1.109375 1.6875 -1.046875 C 1.625 -0.984375 1.523438 -0.894531 1.390625 -0.78125 C 1.265625 -0.664062 1.175781 -0.582031 1.125 -0.53125 L 2.75 -0.53125 L 2.75 -0.046875 Z M 0.265625 -0.046875 "/></g></g></g><g fill="#000000" fill-opacity="1"><g transform="translate(117.313974, 29.87276)"><g><path d="M 1 -3.59375 C 1.175781 -3.6875 1.390625 -3.734375 1.640625 -3.734375 C 1.890625 -3.734375 2.101562 -3.6875 2.28125 -3.59375 C 2.457031 -3.5 2.59375 -3.363281 2.6875 -3.1875 C 2.789062 -3.019531 2.863281 -2.828125 2.90625 -2.609375 C 2.945312 -2.398438 2.96875 -2.15625 2.96875 -1.875 C 2.96875 -1.59375 2.945312 -1.34375 2.90625 -1.125 C 2.863281 -0.914062 2.789062 -0.722656 2.6875 -0.546875 C 2.59375 -0.378906 2.457031 -0.25 2.28125 -0.15625 C 2.101562 -0.0625 1.890625 -0.015625 1.640625 -0.015625 C 1.390625 -0.015625 1.175781 -0.0625 1 -0.15625 C 0.820312 -0.25 0.679688 -0.378906 0.578125 -0.546875 C 0.484375 -0.722656 0.414062 -0.914062 0.375 -1.125 C 0.332031 -1.34375 0.3125 -1.59375 0.3125 -1.875 C 0.3125 -2.15625 0.332031 -2.398438 0.375 -2.609375 C 0.414062 -2.828125 0.484375 -3.019531 0.578125 -3.1875 C 0.679688 -3.363281 0.820312 -3.5 1 -3.59375 Z M 1.640625 -3.203125 C 1.472656 -3.203125 1.335938 -3.164062 1.234375 -3.09375 C 1.128906 -3.03125 1.050781 -2.925781 1 -2.78125 C 0.914062 -2.550781 0.875 -2.25 0.875 -1.875 C 0.875 -1.5 0.914062 -1.191406 1 -0.953125 C 1.09375 -0.679688 1.300781 -0.546875 1.625 -0.546875 C 1.957031 -0.546875 2.175781 -0.679688 2.28125 -0.953125 C 2.363281 -1.191406 2.40625 -1.5 2.40625 -1.875 C 2.40625 -2.25 2.363281 -2.550781 2.28125 -2.78125 C 2.175781 -3.0625 1.960938 -3.203125 1.640625 -3.203125 Z M 1.640625 -3.203125 "/></g></g></g></svg>